<svg width="71" height="71" viewBox="0 0 71 71" fill="none" xmlns="http://www.w3.org/2000/svg">
<circle cx="35.5" cy="35.5" r="35.5" fill="#D9D9D9"/>
<circle cx="35.5" cy="35.5" r="35.5" fill="#D9D9D9"/>
<path d="M51 36.0002C51 36.3317 50.8683 36.6497 50.6339 36.8841C50.3995 37.1185 50.0815 37.2502 49.75 37.2502H25.2672L34.3844 46.3658C34.5005 46.482 34.5926 46.6198 34.6555 46.7716C34.7184 46.9233 34.7507 47.086 34.7507 47.2502C34.7507 47.4145 34.7184 47.5771 34.6555 47.7288C34.5926 47.8806 34.5005 48.0184 34.3844 48.1346C34.2682 48.2507 34.1304 48.3428 33.9786 48.4057C33.8269 48.4686 33.6643 48.5009 33.5 48.5009C33.3358 48.5009 33.1731 48.4686 33.0214 48.4057C32.8696 48.3428 32.7318 48.2507 32.6156 48.1346L21.3656 36.8846C21.2494 36.7685 21.1572 36.6306 21.0943 36.4789C21.0314 36.3271 20.999 36.1645 20.999 36.0002C20.999 35.8359 21.0314 35.6733 21.0943 35.5215C21.1572 35.3698 21.2494 35.2319 21.3656 35.1158L32.6156 23.8658C32.8502 23.6313 33.1683 23.4995 33.5 23.4995C33.8317 23.4995 34.1498 23.6313 34.3844 23.8658C34.6189 24.1004 34.7507 24.4185 34.7507 24.7502C34.7507 25.0819 34.6189 25.4 34.3844 25.6346L25.2672 34.7502H49.75C50.0815 34.7502 50.3995 34.8819 50.6339 35.1163C50.8683 35.3507 51 35.6687 51 36.0002Z" fill="black"/>
</svg>
