<svg width="71" height="71" viewBox="0 0 71 71" fill="none" xmlns="http://www.w3.org/2000/svg">
<circle cx="35.5" cy="35.5" r="35.5" fill="#D9D9D9"/>
<path d="M49.6344 36.8846L38.3844 48.1346C38.1498 48.3691 37.8317 48.5009 37.5 48.5009C37.1683 48.5009 36.8502 48.3691 36.6156 48.1346C36.3811 47.9 36.2493 47.5819 36.2493 47.2502C36.2493 46.9185 36.3811 46.6004 36.6156 46.3658L45.7328 37.2502H21.25C20.9185 37.2502 20.6005 37.1185 20.3661 36.8841C20.1317 36.6497 20 36.3317 20 36.0002C20 35.6687 20.1317 35.3507 20.3661 35.1163C20.6005 34.8819 20.9185 34.7502 21.25 34.7502H45.7328L36.6156 25.6346C36.3811 25.4 36.2493 25.0819 36.2493 24.7502C36.2493 24.4185 36.3811 24.1004 36.6156 23.8658C36.8502 23.6313 37.1683 23.4995 37.5 23.4995C37.8317 23.4995 38.1498 23.6313 38.3844 23.8658L49.6344 35.1158C49.7506 35.2319 49.8428 35.3698 49.9057 35.5215C49.9686 35.6733 50.001 35.8359 50.001 36.0002C50.001 36.1645 49.9686 36.3271 49.9057 36.4789C49.8428 36.6306 49.7506 36.7685 49.6344 36.8846Z" fill="black"/>
</svg>
