<svg width="57" height="57" viewBox="0 0 57 57" fill="none" xmlns="http://www.w3.org/2000/svg">
<path d="M52.5661 10.1167H41.7905V7.78198C41.7905 5.92436 41.1093 4.14283 39.8968 2.8293C38.6843 1.51577 37.0398 0.777832 35.3251 0.777832H22.3944C20.6796 0.777832 19.0351 1.51577 17.8227 2.8293C16.6102 4.14283 15.929 5.92436 15.929 7.78198V10.1167H5.15338C4.01024 10.1167 2.91391 10.6087 2.10558 11.4843C1.29725 12.36 0.84314 13.5477 0.84314 14.7861V52.1416C0.84314 53.38 1.29725 54.5677 2.10558 55.4434C2.91391 56.319 4.01024 56.811 5.15338 56.811H52.5661C53.7092 56.811 54.8055 56.319 55.6139 55.4434C56.4222 54.5677 56.8763 53.38 56.8763 52.1416V14.7861C56.8763 13.5477 56.4222 12.36 55.6139 11.4843C54.8055 10.6087 53.7092 10.1167 52.5661 10.1167ZM20.2392 7.78198C20.2392 7.16277 20.4663 6.56893 20.8705 6.13109C21.2746 5.69324 21.8228 5.44726 22.3944 5.44726H35.3251C35.8967 5.44726 36.4448 5.69324 36.849 6.13109C37.2532 6.56893 37.4802 7.16277 37.4802 7.78198V10.1167H20.2392V7.78198ZM52.5661 14.7861V26.9296C45.2919 31.219 37.1416 33.4655 28.8597 33.4638C20.5781 33.4655 12.4281 31.22 5.15338 26.9325V14.7861H52.5661ZM52.5661 52.1416H5.15338V32.1914C12.5345 36.1027 20.643 38.135 28.8597 38.1333C37.0766 38.1335 45.185 36.1002 52.5661 32.1885V52.1416ZM22.3944 26.4597C22.3944 25.8405 22.6214 25.2467 23.0256 24.8088C23.4297 24.371 23.9779 24.125 24.5495 24.125H33.17C33.7415 24.125 34.2897 24.371 34.6939 24.8088C35.098 25.2467 35.3251 25.8405 35.3251 26.4597C35.3251 27.0789 35.098 27.6728 34.6939 28.1106C34.2897 28.5484 33.7415 28.7944 33.17 28.7944H24.5495C23.9779 28.7944 23.4297 28.5484 23.0256 28.1106C22.6214 27.6728 22.3944 27.0789 22.3944 26.4597Z" fill="#820080"/>
</svg>
