<svg width="80" height="80" viewBox="0 0 80 80" fill="none" xmlns="http://www.w3.org/2000/svg">
<path d="M62.3534 14.37C62.1688 14.0417 61.9151 13.7717 61.6156 13.5847C61.3161 13.3978 60.9804 13.2999 60.6393 13.3H40.2635C39.8723 13.3002 39.4895 13.4292 39.1608 13.6717C38.832 13.9142 38.5711 14.2598 38.4093 14.6674L36.173 20.2971H8.68094C8.28626 20.2972 7.90008 20.4284 7.56933 20.6749C7.23858 20.9215 6.97749 21.2726 6.8178 21.6858C6.6581 22.0989 6.60667 22.5563 6.66975 23.0022C6.73283 23.4482 6.9077 23.8636 7.17313 24.198L16.1156 35.4574L7.17313 46.7169C6.9077 47.0513 6.73283 47.4667 6.66975 47.9126C6.60667 48.3586 6.6581 48.816 6.8178 49.2291C6.97749 49.6423 7.23858 49.9934 7.56933 50.2399C7.90008 50.4865 8.28626 50.6177 8.68094 50.6178H27.2968C27.6879 50.6176 28.0707 50.4886 28.3995 50.2461C28.7283 50.0036 28.9892 49.658 29.151 49.2504L31.3872 43.6207H47.288L38.4093 65.9792C38.2901 66.2593 38.2211 66.5638 38.2064 66.8749C38.1917 67.186 38.2316 67.4973 38.3237 67.7904C38.4158 68.0835 38.5583 68.3526 38.7428 68.5816C38.9272 68.8107 39.1499 68.9951 39.3976 69.1241C39.6454 69.253 39.9132 69.3238 40.1852 69.3324C40.4573 69.3409 40.7281 69.2869 40.9816 69.1737C41.2351 69.0605 41.4663 68.8902 41.6614 68.6731C41.8565 68.4559 42.0117 68.1962 42.1177 67.9093L62.4935 16.5974C62.6347 16.2424 62.6959 15.8524 62.6715 15.4633C62.647 15.0741 62.5376 14.6983 62.3534 14.37ZM25.9851 45.953H13.2859L20.3767 37.0259C20.7174 36.5967 20.9062 36.0375 20.9062 35.4574C20.9062 34.8774 20.7174 34.3182 20.3767 33.8889L13.2859 24.9618H34.3214L25.9851 45.953ZM49.1397 38.956H33.2389L41.5752 17.9648H57.4759L49.1397 38.956Z" fill="#820080"/>
</svg>
