<svg width="70" height="70" viewBox="0 0 70 70" fill="none" xmlns="http://www.w3.org/2000/svg">
<path d="M37.8289 6.34668C41.0573 6.35202 42.6934 6.36911 44.1071 6.4112L44.6639 6.42939C45.3071 6.45225 45.9417 6.48094 46.7068 6.5168C49.7594 6.65785 51.8418 7.14075 53.6707 7.85076C55.5614 8.57991 57.1585 9.56484 58.7529 11.1594C60.3451 12.7539 61.3302 14.3556 62.0617 16.2419C62.7692 18.0683 63.2523 20.1529 63.3957 23.2057C63.4298 23.9707 63.4574 24.6053 63.48 25.2486L63.4981 25.8054C63.54 27.2189 63.5592 28.8552 63.5652 32.0838L63.5675 34.2228C63.5678 34.4841 63.5678 34.7538 63.5678 35.0321L63.5675 35.8413L63.5658 37.9806C63.5604 41.209 63.5434 42.8454 63.5013 44.2588L63.4829 44.8156C63.4602 45.4591 63.4316 46.0937 63.3957 46.8585C63.2546 49.9114 62.7692 51.9935 62.0617 53.8224C61.3325 55.7134 60.3451 57.3105 58.7529 58.9049C57.1585 60.4971 55.5543 61.4819 53.6707 62.2134C51.8418 62.9212 49.7594 63.404 46.7068 63.5474C45.9417 63.5816 45.3071 63.6094 44.6639 63.6318L44.1071 63.6498C42.6934 63.692 41.0573 63.7109 37.8289 63.7172L35.6896 63.7195C35.4283 63.7195 35.1586 63.7195 34.8804 63.7195H34.0711L31.9319 63.7175C28.7034 63.7124 27.0671 63.6952 25.6535 63.653L25.0967 63.6349C24.4534 63.612 23.8189 63.5833 23.0539 63.5474C20.001 63.4066 17.9212 62.9212 16.09 62.2134C14.2014 61.4845 12.6021 60.4971 11.0075 58.9049C9.41299 57.3105 8.43044 55.7063 7.69891 53.8224C6.98889 51.9935 6.50838 49.9114 6.36494 46.8585C6.33086 46.0937 6.30306 45.4591 6.28054 44.8156L6.2625 44.2588C6.22053 42.8454 6.20139 41.209 6.1952 37.9806L6.19482 32.0838C6.20016 28.8552 6.21723 27.2189 6.25931 25.8054L6.27753 25.2486C6.30039 24.6053 6.32908 23.9707 6.36494 23.2057C6.50597 20.1505 6.98889 18.0707 7.69891 16.2419C8.42803 14.3533 9.41299 12.7539 11.0075 11.1594C12.6021 9.56484 14.2038 8.58229 16.09 7.85076C17.9188 7.14075 19.9987 6.66023 23.0539 6.5168C23.8189 6.48274 24.4534 6.45495 25.0967 6.43243L25.6535 6.41438C27.0671 6.37238 28.7034 6.35325 31.9319 6.34705L37.8289 6.34668ZM34.8804 20.6884C26.9542 20.6884 20.5366 27.1131 20.5366 35.0321C20.5366 42.9581 26.9612 49.3758 34.8804 49.3758C42.8064 49.3758 49.2241 42.9512 49.2241 35.0321C49.2241 27.1061 42.7992 20.6884 34.8804 20.6884ZM34.8804 26.4259C39.6336 26.4259 43.4866 30.2777 43.4866 35.0321C43.4866 39.7853 39.6347 43.6383 34.8804 43.6383C30.1271 43.6383 26.2741 39.7867 26.2741 35.0321C26.2741 30.2788 30.1257 26.4259 34.8804 26.4259ZM49.9413 16.3853C47.9638 16.3853 46.3553 17.9915 46.3553 19.9688C46.3553 21.9461 47.9616 23.5548 49.9413 23.5548C51.9184 23.5548 53.5272 21.9486 53.5272 19.9688C53.5272 17.9915 51.9158 16.3828 49.9413 16.3853Z" fill="#820080"/>
</svg>
