<svg width="62" height="58" viewBox="0 0 62 58" fill="none" xmlns="http://www.w3.org/2000/svg">
<path d="M61.1464 56.617C60.967 56.8415 60.745 57.0285 60.4933 57.1672C60.2415 57.3059 59.9649 57.3936 59.6792 57.4254C59.3935 57.4571 59.1044 57.4323 58.8283 57.3522C58.5522 57.2721 58.2946 57.1384 58.0703 56.9588C57.9691 56.8767 47.4554 48.6873 30.9999 48.6873C14.5445 48.6873 4.02807 56.8904 3.92963 56.9615C3.70503 57.141 3.44726 57.2746 3.17104 57.3545C2.89482 57.4344 2.60557 57.4591 2.31979 57.4273C1.74264 57.3629 1.2147 57.0719 0.852095 56.6183C0.489494 56.1647 0.321941 55.5856 0.386297 55.0085C0.450653 54.4313 0.741645 53.9034 1.19526 53.5408C1.64096 53.1853 11.7281 45.2666 28.0714 44.3943C27.2213 41.0071 26.9176 37.5058 27.1718 34.0228C27.6476 28.0865 30.1578 20.1787 38.9296 14.2041C37.4329 13.8329 35.8941 13.6591 34.3523 13.6873C29.157 13.8568 25.8921 16.8892 24.3718 22.9623C24.2546 23.4365 23.9819 23.8579 23.5974 24.1592C23.2128 24.4605 22.7385 24.6244 22.2499 24.6248C22.071 24.6257 21.8928 24.6036 21.7195 24.5591C21.1568 24.4184 20.673 24.0599 20.3746 23.5625C20.0761 23.0651 19.9875 22.4695 20.1281 21.9068C22.6574 11.8033 29.1816 9.48726 34.2101 9.32867C36.2072 9.28521 38.2012 9.51054 40.1382 9.99859C39.091 8.26773 37.5597 6.46304 35.4324 5.55523C32.698 4.39586 29.3703 4.90172 25.5039 7.06187C24.9962 7.3447 24.397 7.41429 23.8381 7.25532C23.2791 7.09635 22.8062 6.72186 22.5234 6.21422C22.2406 5.70658 22.171 5.10737 22.3299 4.54843C22.4889 3.98948 22.8634 3.51658 23.371 3.23375C28.4953 0.376327 33.1382 -0.195158 37.1742 1.53844C40.5894 3.00406 42.8425 5.85328 44.248 8.37437C45.9378 5.73844 48.0433 3.95289 50.3703 3.19547C53.6132 2.13726 57.1078 2.99859 60.7609 5.75758C61.2033 6.1142 61.4896 6.62899 61.5591 7.19298C61.6287 7.75697 61.476 8.32588 61.1335 8.77929C60.7909 9.2327 60.2854 9.53502 59.7239 9.62225C59.1623 9.70947 58.5889 9.57477 58.1249 9.24664C55.6886 7.4064 53.5394 6.7693 51.7402 7.35172C49.7468 7.9943 48.221 10.0861 47.264 11.8935C49.2316 12.2924 51.1248 12.9963 52.8749 13.9798C56.8699 16.263 61.6249 21.1029 61.6249 31.19C61.6249 31.7702 61.3945 32.3266 60.9842 32.7368C60.574 33.147 60.0176 33.3775 59.4374 33.3775C58.8573 33.3775 58.3009 33.147 57.8906 32.7368C57.4804 32.3266 57.2499 31.7702 57.2499 31.19C57.2499 24.7752 55.0433 20.2525 50.6874 17.7916C50.1801 17.5034 49.6549 17.2477 49.1152 17.0259C50.4925 19.826 50.9756 22.9819 50.4988 26.0658C50.155 28.3473 49.3291 30.5295 48.0761 32.4669C47.7408 32.9372 47.2331 33.2558 46.6638 33.3531C46.0945 33.4505 45.5097 33.3187 45.0372 32.9866C44.5647 32.6545 44.2426 32.149 44.1414 31.5804C44.0402 31.0117 44.1679 30.4261 44.4968 29.9513C44.6992 29.6533 48.9621 23.2849 43.6054 16.4517C36.2226 20.6107 32.1511 26.6373 31.5304 34.3865C31.2886 37.7436 31.6432 41.117 32.5777 44.3505C49.7085 44.8455 60.3371 53.1908 60.7964 53.5545C61.2472 53.9154 61.5369 54.4399 61.6025 55.0136C61.668 55.5873 61.5041 56.1636 61.1464 56.617ZM2.56245 32.281C2.56245 30.7668 3.01148 29.2865 3.85276 28.0274C4.69404 26.7684 5.88978 25.787 7.28878 25.2076C8.68777 24.6281 10.2272 24.4765 11.7124 24.7719C13.1975 25.0673 14.5617 25.7965 15.6325 26.8672C16.7032 27.938 17.4324 29.3022 17.7278 30.7874C18.0233 32.2725 17.8716 33.8119 17.2922 35.2109C16.7127 36.6099 15.7313 37.8057 14.4723 38.647C13.2132 39.4882 11.733 39.9373 10.2187 39.9373C8.18813 39.9373 6.24074 39.1306 4.80491 37.6948C3.36908 36.259 2.56245 34.3116 2.56245 32.281ZM6.93745 32.281C6.93745 32.93 7.12989 33.5644 7.49044 34.104C7.85098 34.6436 8.36345 35.0641 8.96302 35.3125C9.56259 35.5608 10.2223 35.6258 10.8588 35.4992C11.4953 35.3726 12.08 35.0601 12.5389 34.6012C12.9978 34.1423 13.3103 33.5577 13.4369 32.9212C13.5635 32.2847 13.4985 31.6249 13.2502 31.0253C13.0018 30.4258 12.5813 29.9133 12.0417 29.5528C11.5021 29.1922 10.8677 28.9998 10.2187 28.9998C9.34845 28.9998 8.51385 29.3455 7.8985 29.9608C7.28315 30.5762 6.93745 31.4108 6.93745 32.281Z" fill="#FFD700"/>
</svg>
