<svg width="53" height="53" viewBox="0 0 53 53" fill="none" xmlns="http://www.w3.org/2000/svg">
<path d="M1.89493 9.07018C1.31792 9.40768 0.838454 9.89654 0.50553 10.4868C0.172605 11.0771 -0.00184063 11.7476 1.96201e-05 12.4298V48.1651C-0.00207606 48.8309 0.163746 49.4859 0.481321 50.0662C0.798896 50.6465 1.25739 51.1324 1.8121 51.4765C2.36681 51.8206 2.99882 52.0111 3.64651 52.0294C4.29419 52.0478 4.93546 51.8934 5.5078 51.5813C5.55819 51.5536 5.60741 51.5247 5.65546 51.4922L15.5156 44.8632C15.6465 44.7755 15.754 44.6555 15.8283 44.5141C15.9026 44.3728 15.9413 44.2146 15.9409 44.054V1.01543C15.9414 0.839941 15.8952 0.667653 15.8074 0.517165C15.7195 0.366677 15.5934 0.243707 15.4425 0.16153C15.2916 0.0793536 15.1217 0.0410926 14.9512 0.0508783C14.7807 0.0606641 14.616 0.118124 14.4749 0.217056L1.89493 9.07018ZM21.1358 0.155643C20.9945 0.0612286 20.831 0.00772821 20.6625 0.000776171C20.4941 -0.00617587 20.3269 0.0336776 20.1787 0.11614C20.0304 0.198602 19.9065 0.320621 19.8201 0.469347C19.7336 0.618073 19.6878 0.788002 19.6874 0.961239V44.0179C19.687 44.1785 19.7258 44.3367 19.8001 44.478C19.8744 44.6193 19.9819 44.7393 20.1128 44.8271L31.3627 52.3436C31.5042 52.4384 31.6679 52.4921 31.8367 52.4992C32.0054 52.5063 32.1728 52.4664 32.3213 52.3837C32.4698 52.3011 32.5938 52.1788 32.6803 52.0297C32.7667 51.8806 32.8123 51.7103 32.8123 51.5368V8.50783C32.8128 8.34689 32.774 8.18839 32.6995 8.04683C32.6249 7.90526 32.5171 7.78513 32.3858 7.69742L21.1358 0.155643ZM50.6869 1.01784C50.1342 0.67029 49.5026 0.477622 48.8549 0.45903C48.2072 0.440437 47.5661 0.596569 46.9955 0.911868C46.9449 0.938522 46.896 0.968279 46.849 1.00098L36.9877 7.62396C36.8568 7.71171 36.7493 7.8317 36.675 7.97303C36.6007 8.11436 36.5619 8.27254 36.5623 8.43317V51.4778C36.5617 51.6535 36.6078 51.826 36.6957 51.9766C36.7836 52.1273 36.91 52.2504 37.0611 52.3326C37.2122 52.4149 37.3823 52.4531 37.553 52.4431C37.7236 52.4331 37.8884 52.3754 38.0295 52.2761L50.5767 43.4302C51.1607 43.0955 51.6469 42.6063 51.985 42.0135C52.3232 41.4206 52.5009 40.7457 52.4997 40.0585V4.41483C52.5075 3.73618 52.3447 3.06697 52.0271 2.47189C51.7095 1.87681 51.2479 1.37599 50.6869 1.01784Z" fill="#FFD700"/>
</svg>
