<svg width="70" height="70" viewBox="0 0 70 70" fill="none" xmlns="http://www.w3.org/2000/svg">
<path d="M60.6687 29.574V12.1808C60.6687 10.5964 59.3843 9.31201 57.7999 9.31201H54.9312C49.2551 14.9882 38.5871 18.1686 31.9812 19.6763V50.5853C38.5871 52.0928 49.2551 55.2734 54.9312 60.9495H57.7999C59.3843 60.9495 60.6687 59.6651 60.6687 58.0807V40.6875C63.1433 40.0506 64.9718 37.8041 64.9718 35.1307C64.9718 32.4574 63.1433 30.2108 60.6687 29.574ZM14.7687 20.787C11.6 20.787 9.03122 23.3558 9.03122 26.5245V43.737C9.03122 46.9058 11.6 49.4745 14.7687 49.4745H17.6375L20.5062 63.8182H26.2437V20.787H14.7687Z" fill="#820080"/>
</svg>
