<svg width="70" height="70" viewBox="0 0 70 70" fill="none" xmlns="http://www.w3.org/2000/svg">
<path d="M34.6857 63.0666C19.263 63.0666 6.71536 50.5189 6.71536 35.0963C6.71536 19.6736 19.263 7.12598 34.6857 7.12598C50.1083 7.12598 62.6559 19.6736 62.6559 35.0963C62.6559 50.5189 50.1083 63.0666 34.6857 63.0666ZM34.6857 11.4291C21.6418 11.4291 11.0185 22.0524 11.0185 35.0963C11.0185 48.1401 21.6418 58.7634 34.6857 58.7634C47.7295 58.7634 58.3528 48.1468 58.3528 35.0963C58.3528 22.0457 47.7362 11.4291 34.6857 11.4291Z" fill="#820080"/>
<path d="M43.7854 39.9376C41.4456 39.9376 39.1851 38.8995 37.4195 37.0155C35.673 35.1212 34.6289 32.6854 34.4611 30.1144C34.2634 27.3308 35.1173 24.7691 36.8654 22.9039C38.6136 21.0388 41.057 20.0356 43.7854 20.0356C46.4937 20.0356 48.9451 21.0603 50.6879 22.9214C52.4306 24.7825 53.3061 27.359 53.1084 30.1171C52.9374 32.6865 51.8936 35.1205 50.15 37.0155C48.383 38.8995 46.1239 39.9376 43.7854 39.9376ZM22.29 40.3894C18.2881 40.3894 14.7689 36.6901 14.4462 32.1422C14.2808 29.8131 15.0042 27.6602 16.4861 26.0802C17.968 24.5001 20.012 23.6597 22.2886 23.6597C24.5652 23.6597 26.6079 24.5257 28.0803 26.099C29.5528 27.6723 30.2991 29.84 30.1311 32.1503C29.8029 36.6914 26.2851 40.3894 22.29 40.3894ZM56.7889 48.447C56.5751 47.815 56.0547 47.1413 55.0112 46.5025C51.8564 44.5755 47.9756 43.5562 43.7854 43.5562C39.6746 43.5562 35.6861 44.6186 32.5529 46.5483C29.023 48.7227 26.6509 51.8935 25.6948 55.7166C25.4689 56.6162 25.1394 58.2904 25.4918 59.2277C31.1456 61.3777 37.3746 61.4763 43.0937 59.5064C48.8128 57.5365 53.6597 53.6228 56.7902 48.447H56.7889ZM22.2644 54.6448C23.2151 50.8514 25.2389 47.6886 28.3789 45.1309C28.5273 45.0084 28.6402 44.8484 28.7057 44.6675C28.7713 44.4865 28.7871 44.2913 28.7515 44.1022C28.7159 43.9131 28.6303 43.737 28.5035 43.5922C28.3767 43.4475 28.2134 43.3394 28.0306 43.2792C26.4169 42.7642 24.5747 42.4885 22.29 42.4885C19.0868 42.4885 15.686 43.3559 13.127 44.9319C12.4008 45.3797 11.6881 45.5518 11.1395 45.7051C13.3423 50.5736 16.9952 54.6426 21.5988 57.3558L21.8395 57.337C21.8921 56.4278 22.0345 55.526 22.2644 54.6448Z" fill="#820080"/>
</svg>
