<svg width="67" height="67" viewBox="0 0 67 67" fill="none" xmlns="http://www.w3.org/2000/svg">
<path d="M45.6229 56.0752C45.6229 56.617 45.4077 57.1366 45.0246 57.5197C44.6415 57.9028 44.1218 58.1181 43.58 58.1181H6.80828C6.26648 58.1181 5.74686 57.9028 5.36375 57.5197C4.98064 57.1366 4.7654 56.617 4.7654 56.0752C4.7654 55.5334 4.98064 55.0138 5.36375 54.6307C5.74686 54.2475 6.26648 54.0323 6.80828 54.0323H43.58C44.1218 54.0323 44.6415 54.2475 45.0246 54.6307C45.4077 55.0138 45.6229 55.5334 45.6229 56.0752ZM63.9731 24.7043C63.9196 24.9886 63.8064 25.2583 63.6408 25.4956C63.4753 25.7329 63.2613 25.9323 63.0129 26.0807L25.3704 48.5523C23.8013 49.4725 22.0158 49.9589 20.1968 49.9619C17.6057 49.959 15.1136 48.966 13.2306 47.1861L13.1999 47.1555L3.99933 38.149C3.51253 37.6867 3.14714 37.1116 2.93547 36.4745C2.7238 35.8375 2.67236 35.158 2.78571 34.4964C2.89907 33.8347 3.17371 33.2111 3.58536 32.6809C3.99701 32.1506 4.53299 31.7299 5.14589 31.456L5.91197 31.0806C6.39576 30.8431 6.95381 30.8064 7.46455 30.9785L14.681 33.4146L19.8316 30.2992L14.2571 24.8881C13.7558 24.4263 13.378 23.8463 13.1581 23.2011C12.9383 22.5559 12.8833 21.8659 12.9983 21.194C13.1133 20.5222 13.3945 19.8897 13.8165 19.3544C14.2384 18.819 14.7875 18.3977 15.4139 18.1288L15.4956 18.0956L17.3214 17.4036C17.7818 17.2319 18.2886 17.2319 18.7489 17.4036L32.523 22.4648L45.6919 14.6048C47.7904 13.3558 50.2684 12.9038 52.6728 13.3314C55.0772 13.7591 57.2474 15.0377 58.7867 16.9337L58.8173 16.972L63.5772 23.0725C63.7551 23.301 63.8823 23.5646 63.9505 23.8459C64.0188 24.1272 64.0265 24.4198 63.9731 24.7043ZM58.9323 23.7595L55.6126 19.5026C54.6886 18.3723 53.3898 17.611 51.9522 17.357C50.5145 17.103 49.0335 17.3733 47.7782 18.1186L33.7845 26.4739C33.5224 26.6293 33.229 26.7246 32.9257 26.7529C32.6223 26.7811 32.3164 26.7417 32.0301 26.6374L18.0441 21.4944L17.0227 21.8851L17.0763 21.9362L24.5736 29.2114C24.7975 29.4289 24.9686 29.6949 25.0737 29.9889C25.1788 30.2829 25.2151 30.5971 25.1798 30.9073C25.1446 31.2175 25.0387 31.5154 24.8703 31.7783C24.7019 32.0412 24.4755 32.262 24.2085 32.4238L15.9833 37.4008C15.7289 37.5544 15.444 37.6507 15.1485 37.6829C14.853 37.7151 14.554 37.6824 14.2724 37.5872L6.95128 35.1178L6.90276 35.1434L6.80828 35.1868C6.82058 35.1956 6.83173 35.2059 6.84148 35.2174L16.0344 44.2214C16.9938 45.123 18.2195 45.6894 19.5279 45.8358C20.8362 45.9822 22.1568 45.7007 23.2917 45.0335L58.9323 23.7595Z" fill="#820080"/>
</svg>
