<svg width="24" height="20" viewBox="0 0 24 20" fill="none" xmlns="http://www.w3.org/2000/svg">
<path d="M23.5294 10.7921L14.6772 19.6443C14.5397 19.782 14.3643 19.8758 14.1735 19.9138C13.9826 19.9518 13.7847 19.9323 13.6049 19.8578C13.425 19.7833 13.2714 19.6571 13.1633 19.4952C13.0552 19.3333 12.9976 19.143 12.9978 18.9484V11.0798H1.19494C0.934076 11.0798 0.683901 10.9762 0.499446 10.7917C0.314991 10.6073 0.211365 10.3571 0.211365 10.0962C0.211365 9.83539 0.314991 9.58521 0.499446 9.40076C0.683901 9.2163 0.934076 9.11268 1.19494 9.11268H12.9978V1.24411C12.9976 1.04947 13.0552 0.859153 13.1633 0.697263C13.2714 0.535373 13.425 0.409187 13.6049 0.334679C13.7847 0.260171 13.9826 0.240692 14.1735 0.278707C14.3643 0.316723 14.5397 0.410524 14.6772 0.548235L23.5294 9.40037C23.6208 9.49172 23.6934 9.60019 23.7429 9.7196C23.7924 9.839 23.8178 9.96699 23.8178 10.0962C23.8178 10.2255 23.7924 10.3535 23.7429 10.4729C23.6934 10.5923 23.6208 10.7008 23.5294 10.7921Z" fill="#001E67"/>
</svg>
