<svg width="242" height="41" viewBox="0 0 242 41" fill="none" xmlns="http://www.w3.org/2000/svg">
<path d="M172.001 28.9115L160.833 35.1628L163.327 22.6097L153.931 13.9202L166.64 12.4133L172.001 0.791504L177.362 12.4133L190.071 13.9202L180.675 22.6097L183.169 35.1628L172.001 28.9115Z" fill="#FFC250"/>
<path d="M19.001 31.9115L7.83301 38.1628L10.3273 25.6097L0.930847 16.9202L13.6403 15.4133L19.001 3.7915L24.3615 15.4133L37.0709 16.9202L27.6746 25.6097L30.1689 38.1628L19.001 31.9115Z" fill="#FFC250"/>
<path d="M70.001 30.9115L58.833 37.1628L61.3273 24.6097L51.9308 15.9202L64.6403 14.4133L70.001 2.7915L75.3615 14.4133L88.0709 15.9202L78.6746 24.6097L81.1689 37.1628L70.001 30.9115Z" fill="#FFC250"/>
<path d="M121.001 29.9115L109.833 36.1628L112.327 23.6097L102.931 14.9202L115.64 13.4133L121.001 1.7915L126.362 13.4133L139.071 14.9202L129.675 23.6097L132.169 36.1628L121.001 29.9115Z" fill="#FFC250"/>
<path d="M223.001 29.9115L211.833 36.1628L214.327 23.6097L204.931 14.9202L217.64 13.4133L223.001 1.7915L228.362 13.4133L241.071 14.9202L231.675 23.6097L234.169 36.1628L223.001 29.9115Z" fill="#FFC250"/>
</svg>
