<svg width="54" height="63" viewBox="0 0 54 63" fill="none" xmlns="http://www.w3.org/2000/svg">
<path d="M44.5 62.0835H38.6667V59.1668H15.3333V62.0835H9.5V59.1668H6.58333C3.36167 59.1668 0.75 56.5552 0.75 53.3335V15.4168C0.75 12.1952 3.36167 9.5835 6.58333 9.5835H15.3333V3.75016C15.3333 2.13935 16.6392 0.833496 18.25 0.833496H35.75C37.3609 0.833496 38.6667 2.13935 38.6667 3.75016V9.5835H47.4167C50.6384 9.5835 53.25 12.1952 53.25 15.4168V53.3335C53.25 56.5552 50.6384 59.1668 47.4167 59.1668H44.5V62.0835ZM21.1667 21.2502H15.3333V47.5002H21.1667V21.2502ZM38.6667 21.2502H32.8333V47.5002H38.6667V21.2502ZM32.8333 6.66683H21.1667V9.5835H32.8333V6.66683Z" fill="#FFD700"/>
</svg>
