<svg width="70" height="70" viewBox="0 0 70 70" fill="none" xmlns="http://www.w3.org/2000/svg">
<path d="M52.092 66.8169H46.3545V63.9482H23.4045V66.8169H17.667V63.9482H14.7983C11.6296 63.9482 9.06079 61.3795 9.06079 58.2107V20.917C9.06079 17.7482 11.6296 15.1795 14.7983 15.1795H23.4045V9.44199C23.4045 7.85764 24.6889 6.57324 26.2733 6.57324H43.4858C45.0702 6.57324 46.3545 7.85764 46.3545 9.44199V15.1795H54.9608C58.1296 15.1795 60.6982 17.7482 60.6982 20.917V58.2107C60.6982 61.3795 58.1296 63.9482 54.9608 63.9482H52.092V66.8169ZM29.142 26.6545H23.4045V52.4732H29.142V26.6545ZM46.3545 26.6545H40.617V52.4732H46.3545V26.6545ZM40.617 12.3107H29.142V15.1795H40.617V12.3107Z" fill="#820080"/>
</svg>
