<svg width="61" height="60" viewBox="0 0 61 60" fill="none" xmlns="http://www.w3.org/2000/svg">
<path d="M51.5567 8.2125C48.7962 5.62333 45.5127 3.56522 41.8944 2.156C38.2761 0.746777 34.3939 0.0141277 30.4703 0H30.2424C22.2859 0 14.6553 2.93494 9.02926 8.15917C3.40319 13.3834 0.242493 20.469 0.242493 27.8571V42.8571C0.242493 44.5621 0.971884 46.1972 2.27021 47.4028C3.56853 48.6084 5.32944 49.2857 7.16554 49.2857H11.7809C13.617 49.2857 15.3779 48.6084 16.6763 47.4028C17.9746 46.1972 18.704 44.5621 18.704 42.8571V32.1429C18.704 30.4379 17.9746 28.8028 16.6763 27.5972C15.3779 26.3916 13.617 25.7143 11.7809 25.7143H4.96171C5.40675 21.2463 7.21411 16.9886 10.172 13.4403C13.1298 9.89198 17.1156 7.20008 21.6621 5.68008C26.2087 4.16009 31.1276 3.87497 35.8424 4.85814C40.5573 5.84132 44.8726 8.05206 48.2827 11.2312C52.4506 15.1213 55.0143 20.2475 55.5259 25.7143H48.7039C46.8677 25.7143 45.1068 26.3916 43.8085 27.5972C42.5102 28.8028 41.7808 30.4379 41.7808 32.1429V42.8571C41.7808 44.5621 42.5102 46.1972 43.8085 47.4028C45.1068 48.6084 46.8677 49.2857 48.7039 49.2857H55.6269C55.6269 50.9907 54.8975 52.6258 53.5992 53.8314C52.3009 55.037 50.54 55.7143 48.7039 55.7143H32.5501C31.938 55.7143 31.3511 55.9401 30.9183 56.3419C30.4855 56.7438 30.2424 57.2888 30.2424 57.8571C30.2424 58.4255 30.4855 58.9705 30.9183 59.3724C31.3511 59.7742 31.938 60 32.5501 60H48.7039C51.764 60 54.6989 58.8712 56.8627 56.8619C59.0266 54.8525 60.2423 52.1273 60.2423 49.2857V27.8571C60.2573 24.2131 59.4978 20.6022 58.0074 17.2312C56.517 13.8602 54.3249 10.7955 51.5567 8.2125ZM11.7809 30C12.3929 30 12.9799 30.2258 13.4127 30.6276C13.8455 31.0295 14.0886 31.5745 14.0886 32.1429V42.8571C14.0886 43.4255 13.8455 43.9705 13.4127 44.3724C12.9799 44.7742 12.3929 45 11.7809 45H7.16554C6.55351 45 5.96654 44.7742 5.53377 44.3724C5.10099 43.9705 4.85786 43.4255 4.85786 42.8571V30H11.7809ZM48.7039 45C48.0918 45 47.5048 44.7742 47.0721 44.3724C46.6393 43.9705 46.3962 43.4255 46.3962 42.8571V32.1429C46.3962 31.5745 46.6393 31.0295 47.0721 30.6276C47.5048 30.2258 48.0918 30 48.7039 30H55.6269V45H48.7039Z" fill="#820080"/>
</svg>
