<svg width="41" height="42" viewBox="0 0 41 42" fill="none" xmlns="http://www.w3.org/2000/svg">
<path d="M30.0368 23.6747L24.9127 21.1126C24.711 21.0121 24.4863 20.9666 24.2614 20.9807C24.0365 20.9947 23.8193 21.0679 23.6317 21.1927L21.2794 22.762C20.1996 22.1683 19.3109 21.2797 18.7173 20.1999L20.2866 17.8476C20.4114 17.66 20.4846 17.4428 20.4986 17.2179C20.5127 16.993 20.4672 16.7683 20.3667 16.5666L17.8046 11.4425C17.6984 11.2281 17.5343 11.0476 17.3308 10.9217C17.1273 10.7958 16.8926 10.7293 16.6533 10.7299C14.9545 10.7299 13.3254 11.4048 12.1242 12.606C10.923 13.8072 10.2482 15.4363 10.2482 17.1351C10.2524 20.871 11.7384 24.4527 14.3801 27.0944C17.0218 29.7361 20.6035 31.2221 24.3394 31.2263C25.1806 31.2263 26.0135 31.0607 26.7906 30.7388C27.5677 30.4169 28.2738 29.9451 28.8685 29.3503C29.4633 28.7555 29.9351 28.0494 30.257 27.2723C30.5789 26.4952 30.7445 25.6623 30.7445 24.8212C30.7447 24.5832 30.6786 24.3499 30.5536 24.1474C30.4286 23.9449 30.2496 23.7812 30.0368 23.6747ZM24.3394 28.6643C21.2827 28.6609 18.3522 27.4451 16.1908 25.2837C14.0294 23.1223 12.8136 20.1918 12.8102 17.1351C12.81 16.2465 13.1176 15.3854 13.6808 14.6981C14.2439 14.0109 15.0278 13.54 15.8991 13.3657L17.7374 17.0486L16.1729 19.3769C16.056 19.5522 15.9842 19.7537 15.9638 19.9635C15.9434 20.1733 15.9751 20.3848 16.056 20.5794C16.9726 22.7578 18.7055 24.4907 20.8839 25.4073C21.0791 25.4918 21.2922 25.5264 21.5041 25.508C21.716 25.4895 21.92 25.4186 22.0976 25.3016L24.4371 23.7419L28.12 25.5802C27.9443 26.4525 27.4714 27.2367 26.7819 27.7991C26.0925 28.3616 25.2292 28.6673 24.3394 28.6643ZM20.4964 4.32483C17.6212 4.3242 14.7949 5.06796 12.2924 6.48372C9.79002 7.89948 7.69677 9.939 6.21642 12.4038C4.73608 14.8685 3.91908 17.6746 3.84495 20.5488C3.77082 23.423 4.44209 26.2674 5.79341 28.8052L3.97596 34.2575C3.82541 34.709 3.80357 35.1934 3.91286 35.6565C4.02216 36.1197 4.25829 36.5432 4.59477 36.8797C4.93126 37.2162 5.35481 37.4523 5.81795 37.5616C6.28109 37.6709 6.76552 37.6491 7.21695 37.4985L12.6693 35.6811C14.9027 36.869 17.3774 37.5325 19.9055 37.6212C22.4337 37.7099 24.9488 37.2215 27.2599 36.1931C29.5711 35.1646 31.6176 33.6232 33.2442 31.6857C34.8707 29.7482 36.0344 27.4657 36.6471 25.0113C37.2597 22.557 37.3052 19.9953 36.78 17.5207C36.2548 15.0462 35.1728 12.7238 33.616 10.7298C32.0593 8.73587 30.0687 7.12278 27.7955 6.01299C25.5222 4.90319 23.026 4.32587 20.4964 4.32483ZM20.4964 35.0694C18.0191 35.0711 15.5854 34.4187 13.4411 33.1783C13.2841 33.0872 13.1096 33.0306 12.929 33.0121C12.7485 32.9936 12.5661 33.0137 12.3939 33.071L6.4051 35.0694L8.40189 29.0806C8.45945 28.9085 8.4798 28.7262 8.46158 28.5456C8.44336 28.3651 8.38699 28.1905 8.29621 28.0334C6.74292 25.3479 6.11928 22.2249 6.52204 19.1488C6.92479 16.0727 8.33143 13.2155 10.5237 11.0204C12.716 8.82533 15.5715 7.41509 18.647 7.00845C21.7226 6.60181 24.8464 7.2215 27.5339 8.7714C30.2213 10.3213 32.3222 12.7147 33.5105 15.5805C34.6989 18.4462 34.9083 21.624 34.1063 24.6209C33.3043 27.6178 31.5358 30.2662 29.075 32.1554C26.6142 34.0446 23.5987 35.0689 20.4964 35.0694Z" fill="white"/>
</svg>
