<svg width="38" height="30" viewBox="0 0 38 30" fill="none" xmlns="http://www.w3.org/2000/svg">
<path d="M18.6574 16.3298L19 16.6521L19.3426 16.3298L33.1231 3.36416L34.0416 2.5H32.7805H5.21952H3.95843L4.8769 3.36416L18.6574 16.3298ZM13.9915 15.3642L14.3787 15L13.9915 14.6358L3.26566 4.54643L2.42308 3.75385V4.91063V25.0894V26.2462L3.26566 25.4536L13.9915 15.3642ZM16.1555 16.671L15.8128 16.3471L15.4694 16.6702L4.87691 26.6358L3.95838 27.5H5.21952H32.7695H34.031L33.1121 26.6358L22.5159 16.6702L22.1725 16.3472L21.8299 16.671L19.6382 18.7423C19.6381 18.7425 19.6379 18.7426 19.6378 18.7427C19.4597 18.9103 19.2294 19.0012 18.9927 19.0012C18.756 19.0012 18.5257 18.9103 18.3476 18.7427C18.3475 18.7426 18.3473 18.7425 18.3472 18.7423L16.1555 16.671ZM24.0084 14.6358L23.6214 15L24.0084 15.3642L34.7343 25.4554L35.5769 26.2482V25.0913V4.90875V3.75183L34.7343 4.54459L24.0084 14.6358ZM1.46154 0.5H36.5385C36.7892 0.5 37.0324 0.602116 37.2138 0.788273C37.3956 0.97487 37.5 1.23065 37.5 1.5V27C37.5 27.6672 37.2416 28.3045 36.7857 28.7724C36.3303 29.2398 35.7153 29.5 35.0769 29.5H2.92308C2.28469 29.5 1.66974 29.2398 1.21426 28.7724C0.758359 28.3045 0.5 27.6672 0.5 27V1.5C0.5 1.23065 0.604376 0.974871 0.786189 0.788273C0.967573 0.602116 1.21078 0.5 1.46154 0.5Z" fill="#F4F4F4" stroke="#F4F4F4"/>
</svg>
