<svg width="35" height="35" viewBox="0 0 35 35" fill="none" xmlns="http://www.w3.org/2000/svg">
<path d="M17.5 9.42308C15.9025 9.42308 14.3409 9.89678 13.0127 10.7843C11.6845 11.6718 10.6492 12.9332 10.0379 14.4091C9.42657 15.885 9.26662 17.509 9.57827 19.0757C9.88992 20.6425 10.6592 22.0817 11.7888 23.2112C12.9183 24.3408 14.3575 25.1101 15.9243 25.4217C17.491 25.7334 19.115 25.5734 20.5909 24.9621C22.0668 24.3508 23.3282 23.3155 24.2157 21.9873C25.1032 20.6591 25.5769 19.0975 25.5769 17.5C25.5747 15.3586 24.723 13.3054 23.2088 11.7912C21.6946 10.277 19.6414 9.4253 17.5 9.42308ZM17.5 22.8846C16.435 22.8846 15.394 22.5688 14.5085 21.9771C13.623 21.3855 12.9328 20.5445 12.5253 19.5606C12.1177 18.5767 12.0111 17.494 12.2188 16.4495C12.4266 15.405 12.9395 14.4456 13.6925 13.6925C14.4456 12.9394 15.405 12.4266 16.4495 12.2188C17.494 12.0111 18.5767 12.1177 19.5606 12.5253C20.5445 12.9328 21.3855 13.623 21.9771 14.5085C22.5688 15.394 22.8846 16.435 22.8846 17.5C22.8846 18.9281 22.3173 20.2977 21.3075 21.3075C20.2977 22.3173 18.9281 22.8846 17.5 22.8846ZM25.5769 0H9.42308C6.92474 0.0026725 4.5295 0.996316 2.76291 2.76291C0.996316 4.5295 0.0026725 6.92474 0 9.42308V25.5769C0.0026725 28.0753 0.996316 30.4705 2.76291 32.2371C4.5295 34.0037 6.92474 34.9973 9.42308 35H25.5769C28.0753 34.9973 30.4705 34.0037 32.2371 32.2371C34.0037 30.4705 34.9973 28.0753 35 25.5769V9.42308C34.9973 6.92474 34.0037 4.5295 32.2371 2.76291C30.4705 0.996316 28.0753 0.0026725 25.5769 0ZM32.3077 25.5769C32.3077 27.362 31.5986 29.074 30.3363 30.3363C29.074 31.5986 27.362 32.3077 25.5769 32.3077H9.42308C7.63797 32.3077 5.92597 31.5986 4.6637 30.3363C3.40144 29.074 2.69231 27.362 2.69231 25.5769V9.42308C2.69231 7.63797 3.40144 5.92597 4.6637 4.6637C5.92597 3.40144 7.63797 2.69231 9.42308 2.69231H25.5769C27.362 2.69231 29.074 3.40144 30.3363 4.6637C31.5986 5.92597 32.3077 7.63797 32.3077 9.42308V25.5769ZM28.2692 8.75C28.2692 9.14937 28.1508 9.53976 27.9289 9.87182C27.7071 10.2039 27.3917 10.4627 27.0227 10.6155C26.6538 10.7684 26.2478 10.8083 25.8561 10.7304C25.4644 10.6525 25.1046 10.4602 24.8222 10.1778C24.5398 9.89542 24.3475 9.53563 24.2696 9.14393C24.1917 8.75224 24.2316 8.34624 24.3845 7.97727C24.5373 7.60831 24.7961 7.29295 25.1282 7.07107C25.4602 6.84919 25.8506 6.73077 26.25 6.73077C26.7855 6.73077 27.2991 6.94351 27.6778 7.32219C28.0565 7.70087 28.2692 8.21447 28.2692 8.75Z" fill="#F4F4F4"/>
</svg>
